<svg width="22" height="24" viewBox="0 0 22 24" fill="none" xmlns="http://www.w3.org/2000/svg">
<path d="M15.8889 9.5558C15.8889 12.2557 13.6999 14.4447 11 14.4447C8.30012 14.4447 6.11112 12.2557 6.11112 9.5558M1.24667 5.97469H20.7533M1.60112 5.31102L4.15556 1.96213C4.61756 1.35591 5.33623 1.00024 6.09889 1.00024H15.9011C16.6638 1.00024 17.3825 1.35591 17.8445 1.96213L20.3989 5.31102C20.724 5.73636 20.9 6.25824 20.9 6.79358V20.5558C20.9 21.9064 19.8061 23.0002 18.4556 23.0002H3.54445C2.19389 23.0002 1.10001 21.9064 1.10001 20.5558V6.79358C1.10001 6.25824 1.27601 5.73758 1.60112 5.31102Z" stroke="#909090" stroke-width="1.5" stroke-linecap="round" stroke-linejoin="round"/>
</svg>
