<svg width="25" height="24" viewBox="0 0 25 24" fill="none" xmlns="http://www.w3.org/2000/svg">
<path d="M22.0845 7.47702L21.6241 8.06901L21.6244 8.06925L22.0845 7.47702ZM14.7513 1.77298L14.2906 2.36482L14.2908 2.36498L14.7513 1.77298ZM10.2487 1.77298L9.78828 1.18094L9.78822 1.18099L10.2487 1.77298ZM2.91547 7.47702L3.37564 8.06925L3.37594 8.06901L2.91547 7.47702ZM15.0923 11.2414L14.5617 11.7715L14.562 11.7717L15.0923 11.2414ZM22.545 6.88502L15.2118 1.18099L14.2908 2.36498L21.6241 8.06901L22.545 6.88502ZM15.212 1.18115C13.6173 -0.0601537 11.3838 -0.0598905 9.78828 1.18094L10.7091 2.36503C11.7633 1.54522 13.238 1.54548 14.2906 2.36482L15.212 1.18115ZM9.78822 1.18099L2.45499 6.88502L3.37594 8.06901L10.7092 2.36498L9.78822 1.18099ZM2.45529 6.88478C1.37866 7.72134 0.750153 9.0083 0.750153 10.3712H2.25015C2.25015 9.47057 2.66541 8.62111 3.37564 8.06925L2.45529 6.88478ZM0.750153 10.3712V19.3336H2.25015V10.3712H0.750153ZM0.750153 19.3336C0.750153 21.773 2.72736 23.7502 5.16677 23.7502V22.2502C3.55579 22.2502 2.25015 20.9446 2.25015 19.3336H0.750153ZM5.16677 23.7502H19.8332V22.2502H5.16677V23.7502ZM19.8332 23.7502C22.2726 23.7502 24.2498 21.773 24.2498 19.3336H22.7498C22.7498 20.9446 21.4442 22.2502 19.8332 22.2502V23.7502ZM24.2498 19.3336V10.3712H22.7498V19.3336H24.2498ZM24.2498 10.3712C24.2498 9.0083 23.6213 7.72134 22.5447 6.88478L21.6244 8.06925C22.3346 8.62111 22.7498 9.47057 22.7498 10.3712H24.2498ZM14.562 11.7717C15.7015 12.9113 15.7015 14.7574 14.562 15.8969L15.6226 16.9576C17.3479 15.2322 17.3479 12.4364 15.6226 10.7111L14.562 11.7717ZM14.562 15.8969C13.4224 17.0364 11.5763 17.0364 10.4368 15.8969L9.37615 16.9576C11.1015 18.6829 13.8973 18.6829 15.6226 16.9576L14.562 15.8969ZM10.4368 15.8969C9.29728 14.7574 9.29728 12.9113 10.4368 11.7717L9.37615 10.7111C7.65083 12.4364 7.65083 15.2322 9.37615 16.9576L10.4368 15.8969ZM10.4368 11.7717C11.5765 10.6321 13.4236 10.6324 14.5617 11.7715L15.6229 10.7113C13.8986 8.98556 11.1013 8.98588 9.37615 10.7111L10.4368 11.7717Z" fill="#8D2976"/>
</svg>
