<svg width="27" height="24" viewBox="0 0 27 24" fill="none" xmlns="http://www.w3.org/2000/svg">
<path d="M21.9 3.44469H23.1C24.426 3.44469 25.5 4.53858 25.5 5.88913V20.5558C25.5 21.9064 24.426 23.0002 23.1 23.0002H3.9C2.574 23.0002 1.5 21.9064 1.5 20.5558V5.88913C1.5 4.53858 2.574 3.44469 3.9 3.44469H5.1M13.5 4.66691C13.5 2.64169 11.8884 1.00024 9.9 1.00024H6.3C5.6376 1.00024 5.1 1.5478 5.1 2.22247V18.1114C5.1 18.786 5.6376 19.3336 6.3 19.3336H9.9C11.8884 19.3336 13.5 20.975 13.5 23.0002M13.5 4.66691C13.5 2.64169 15.1116 1.00024 17.1 1.00024H20.7C21.3624 1.00024 21.9 1.5478 21.9 2.22247V18.1114C21.9 18.786 21.3624 19.3336 20.7 19.3336H17.1C15.1116 19.3336 13.5 20.975 13.5 23.0002M13.5 4.66691V23.0002" stroke="#909090" stroke-width="1.5" stroke-linecap="round" stroke-linejoin="round"/>
</svg>
